<svg width="160" height="160" viewBox="0 0 160 160" fill="none" xmlns="http://www.w3.org/2000/svg">
<rect width="160" height="160" fill="#F9FAFB"/>
<g opacity="0.4">
<path fill-rule="evenodd" clip-rule="evenodd" d="M51.1989 55.9945C48.6529 55.9945 46.2111 57.006 44.4107 58.8063C42.6104 60.6067 41.5989 63.0485 41.5989 65.5945V103.995C41.5989 106.541 42.6104 108.982 44.4107 110.783C46.2111 112.583 48.6529 113.595 51.1989 113.595H108.799C111.345 113.595 113.787 112.583 115.587 110.783C117.388 108.982 118.399 106.541 118.399 103.995V65.5945C118.399 63.0485 117.388 60.6067 115.587 58.8063C113.787 57.006 111.345 55.9945 108.799 55.9945H101.186C99.9132 55.9943 98.6925 55.4884 97.7925 54.5881L92.4117 49.2073C90.6118 47.4069 88.1704 46.3951 85.6245 46.3945H74.3733C71.8275 46.3951 69.3861 47.4069 67.5861 49.2073L62.2053 54.5881C61.3054 55.4884 60.0847 55.9943 58.8117 55.9945H51.1989ZM79.9989 99.1945C81.89 99.1945 83.7625 98.8221 85.5096 98.0984C87.2567 97.3747 88.8441 96.314 90.1813 94.9769C91.5184 93.6397 92.5791 92.0523 93.3028 90.3052C94.0265 88.5581 94.3989 86.6856 94.3989 84.7945C94.3989 82.9035 94.0265 81.031 93.3028 79.2839C92.5791 77.5368 91.5184 75.9494 90.1813 74.6122C88.8441 73.275 87.2567 72.2143 85.5096 71.4907C83.7625 70.767 81.89 70.3945 79.9989 70.3945C76.1798 70.3945 72.5171 71.9117 69.8166 74.6122C67.1161 77.3127 65.5989 80.9754 65.5989 84.7945C65.5989 88.6137 67.1161 92.2763 69.8166 94.9769C72.5171 97.6774 76.1798 99.1945 79.9989 99.1945V99.1945Z" fill="#B0B5BF"/>
</g>
</svg>
