<svg xmlns="http://www.w3.org/2000/svg" fill="none" viewBox="0 0 42 24"><path d="M30.63.75H11.45C5.45.75.55 5.81.55 12s4.9 11.25 10.9 11.25h19.18c6 0 10.9-5.06 10.9-11.25S36.63.75 30.63.75Z" fill="#fff"/><path d="M30.63 1.66c1.35 0 2.66.28 3.89.82A10.39 10.39 0 0 1 40.65 12a10.49 10.49 0 0 1-2.94 7.3c-.92.95-2 1.7-3.2 2.22a9.62 9.62 0 0 1-3.88.82H11.45a9.62 9.62 0 0 1-3.89-.82A10.39 10.39 0 0 1 1.43 12a10.49 10.49 0 0 1 2.95-7.3C5.3 3.75 6.37 3 7.56 2.48a9.62 9.62 0 0 1 3.89-.82h19.18Zm0-.91H11.45C5.45.75.55 5.81.55 12s4.9 11.25 10.9 11.25h19.18c6 0 10.9-5.06 10.9-11.25S36.63.75 30.63.75Z" fill="#3C4043"/><path d="M20.1 12.8v3.4h-1.05V7.8h2.77c.7 0 1.3.24 1.8.72.5.49.74 1.08.74 1.77 0 .72-.25 1.3-.75 1.79-.48.48-1.08.71-1.79.71h-1.73Zm0-3.97v2.93h1.74c.42 0 .76-.14 1.04-.43s.42-.64.42-1.03-.14-.73-.42-1.02c-.28-.3-.62-.44-1.04-.44H20.1ZM27.1 10.26c.77 0 1.38.21 1.83.64.45.43.67 1.01.67 1.75v3.55h-1v-.8h-.04c-.43.66-1 .98-1.73.98a2.2 2.2 0 0 1-1.54-.56 1.82 1.82 0 0 1-.62-1.4c0-.6.22-1.07.65-1.42a2.68 2.68 0 0 1 1.75-.53c.62 0 1.13.12 1.53.35v-.24c0-.38-.14-.7-.43-.96a1.58 1.58 0 0 0-2.4.37l-.92-.6a2.53 2.53 0 0 1 2.25-1.13Zm-1.35 4.17c0 .28.11.52.35.7.23.19.5.29.81.29.44 0 .83-.17 1.18-.51.34-.34.51-.73.51-1.19a2.1 2.1 0 0 0-1.36-.4c-.42 0-.78.11-1.06.32-.29.22-.43.48-.43.8ZM35.3 10.45l-3.5 8.28h-1.07l1.3-2.9-2.3-5.38h1.13l1.66 4.12h.02l1.61-4.12h1.14Z" fill="#3C4043"/><path d="M15.93 12.11c0-.35-.03-.69-.09-1.01h-4.38v1.85h2.52c-.1.62-.43 1.15-.93 1.5v1.2h1.5a4.8 4.8 0 0 0 1.38-3.54Z" fill="#4285F4"/><path d="M13.05 14.45a2.8 2.8 0 0 1-4.21-1.53H7.29v1.24a4.66 4.66 0 0 0 7.26 1.5l-1.5-1.21Z" fill="#34A853"/><path d="M8.7 12c0-.32.04-.63.14-.92V9.84H7.29a4.92 4.92 0 0 0 0 4.32l1.55-1.24c-.1-.29-.15-.6-.15-.92Z" fill="#FABB05"/><path d="M11.46 9.09c.69 0 1.3.25 1.79.72l1.33-1.37a4.41 4.41 0 0 0-3.12-1.26 4.66 4.66 0 0 0-4.17 2.66l1.55 1.24a2.8 2.8 0 0 1 2.62-1.99Z" fill="#E94235"/></svg>