<svg xmlns="http://www.w3.org/2000/svg" width="101" height="60"><title>UnionPay-dark</title><desc>Created with Sketch.</desc><g fill="none"><g><g transform="translate(-450 -264) translate(450 264)"><rect width="100" height="60" fill="#fff" rx="4"/><path fill="#01798A" d="M68.58 0c-3.16.1-7.03 2.65-7.74 5.8l-10.7 48.4c-.7 3.17 1.22 5.75 4.3 5.8h41.6c2.2 0 4-1.8 4-4L100 4c0-2.2-1.8-4-4-4"/><path fill="#DD0228" d="M0 4c0-2.2 1.8-4 4-4h41v60H4c-2.2 0-4-1.8-4-4V4z"/><path fill="#024381" d="M61.1 5.8c.7-3.14 4.57-5.7 7.68-5.8h-30.2c-3.1.07-7.03 2.63-7.73 5.8l-10.7 48.4c-.7 3.17 1.2 5.75 4.3 5.8H54.7c-3.1-.05-5-2.63-4.3-5.8L61.1 5.8z"/><path fill="#fff" d="M44 35.18h.38c.36 0 .6-.13.72-.37l1.02-1.54h2.73l-.57 1.02h3.28l-.42 1.56h-3.9c-.45.7-1 1-1.66.97h-2.03L44 35.2zm-.46 2.24h7.18l-.46 1.7h-2.9l-.43 1.64h2.8l-.45 1.7h-2.8l-.66 2.42c-.16.4.05.58.64.54h2.3L48.3 47h-4.4c-.83 0-1.1-.48-.85-1.45l.83-3.1h-1.8l.46-1.7h1.8l.44-1.63h-1.72l.46-1.7zM55 33.25l-.12 1s1.36-1.04 2.6-1.04H62l-1.72 6.4c-.15.73-.77 1.1-1.86 1.1h-5.15l-1.2 4.48c-.08.24.02.37.28.37h1.02l-.38 1.4H50.4c-1 0-1.4-.3-1.24-.92l3.4-12.78H55zm3.85 1.8H54.8l-.5 1.73s.68-.5 1.8-.52c1.14 0 2.42 0 2.42 0l.33-1.2zm-1.47 4c.3.05.46-.08.5-.36l.23-.92h-4.05l-.34 1.27h3.68zm-2.74 2.07h2.34l-.05 1.03h.63c.3 0 .47-.1.47-.3l.18-.67h1.96l-.26.97c-.22.8-.8 1.23-1.75 1.27H56.9v1.76c-.03.28.23.43.74.43h1.17l-.36 1.4h-2.82c-.78.04-1.17-.34-1.16-1.15l.18-4.73z"/><path fill="#fff" d="M26.26 24.73c-.32 1.58-1.06 2.8-2.2 3.66-1.13.83-2.6 1.26-4.38 1.26-1.68 0-2.9-.43-3.7-1.3-.55-.63-.82-1.4-.82-2.36 0-.4.05-.82.14-1.27l1.9-9.33h2.88l-1.88 9.22c-.05.26-.08.5-.07.7 0 .48.1.87.34 1.17.34.44.9.66 1.67.66.88 0 1.6-.22 2.18-.66.56-.44.93-1.07 1.1-1.88l1.88-9.22h2.86l-1.9 9.33"/><path fill="#fff" d="M38.34 21.06h2.25l-1.78 8.32h-2.24l1.76-8.32m.7-3.04h2.28l-.43 2.03H38.6l.42-2.03"/><path fill="#fff" d="M42.58 28.75c-.6-.57-.88-1.34-.9-2.32 0-.17.02-.36.04-.57.03-.2.05-.42.1-.6.26-1.36.83-2.43 1.7-3.23.88-.8 1.94-1.2 3.17-1.2 1 0 1.8.3 2.4.87.58.58.88 1.36.88 2.35 0 .17-.02.37-.04.58-.02.22-.06.42-.1.62-.25 1.33-.82 2.4-1.7 3.17-.87.8-1.93 1.18-3.15 1.18-1.03 0-1.83-.28-2.42-.85m4.3-1.65c.4-.44.68-1.1.85-1.98.03-.14.05-.28.06-.43 0-.15 0-.28 0-.4 0-.5-.12-.9-.37-1.2-.26-.28-.63-.42-1.1-.42-.62 0-1.13.22-1.53.67-.4.44-.68 1.12-.86 2.02-.03.14-.05.27-.07.4 0 .15-.02.28 0 .4 0 .5.12.9.37 1.17.26.28.62.42 1.1.42.63 0 1.14-.22 1.53-.66"/><path fill="#fff" d="M64.6 35.25l.53-1.95h2.75l-.12.72s1.4-.72 2.4-.72h3.4l-.53 1.95h-.53l-2.56 9.16h.53l-.5 1.82h-.54l-.23.8h-2.65l.22-.8h-5.25l.5-1.8h.54l2.56-9.17h-.53zm2.95 0l-.7 2.47s1.2-.46 2.23-.6c.23-.86.53-1.87.53-1.87h-2.05zm-1.02 3.64l-.7 2.58s1.32-.66 2.23-.72c.27-1 .53-1.87.53-1.87h-2.07zm.5 5.5l.54-1.88h-2.05l-.53 1.9h2.04zM73.7 33.2h2.57l.1.97c0 .25.13.37.44.37h.47l-.46 1.64h-1.9c-.72.03-1.1-.25-1.12-.86l-.1-2.12zm-.77 3.52h8.36l-.5 1.76h-2.66l-.46 1.64h2.66l-.5 1.76H76.9l-.68 1.03h1.45l.33 2.05c.04.2.22.3.53.3h.45l-.48 1.7h-1.6c-.82.04-1.24-.24-1.28-.85l-.38-1.88-1.32 2c-.3.57-.8.83-1.44.8h-2.44l.48-1.7h.76c.3 0 .57-.15.8-.43l2.07-3.04H71.5l.48-1.76h2.9l.45-1.64h-2.9l.5-1.76z"/><path fill="#fff" d="M28.9 21.05h2.04l-.23 1.2.3-.34c.66-.7 1.46-1.06 2.4-1.06.85 0 1.47.26 1.86.76.38.5.48 1.2.3 2.1l-1.12 5.7h-2.08l1-5.16c.1-.53.08-.92-.08-1.18-.16-.25-.46-.38-.9-.38-.54 0-1 .17-1.36.5-.37.35-.6.82-.73 1.42l-.94 4.8h-2.1l1.65-8.35"/><path fill="#fff" d="M52.2 21.05h2.04l-.24 1.2.3-.34c.65-.7 1.45-1.06 2.4-1.06.85 0 1.47.26 1.85.76.38.5.5 1.2.3 2.1l-1.1 5.7h-2.1l1-5.16c.1-.53.1-.92-.07-1.18-.17-.25-.47-.38-.9-.38-.54 0-1 .17-1.36.5-.37.35-.62.82-.73 1.42l-.95 4.8h-2.1l1.65-8.35"/><path fill="#fff" d="M62.25 15.9h5.9c1.14 0 2.02.25 2.62.77.6.5.9 1.26.9 2.23v.03c0 .2 0 .4-.03.62-.03.22-.07.45-.1.68-.27 1.3-.88 2.32-1.8 3.1-.95.78-2.05 1.18-3.33 1.18h-3.16l-.97 4.9h-2.74l2.72-13.5m1.48 6.26h2.62c.7 0 1.23-.16 1.62-.48.4-.32.66-.82.8-1.48.02-.13.04-.24.06-.34 0-.1.02-.2.02-.3 0-.47-.17-.8-.5-1.03-.34-.22-.87-.33-1.6-.33h-2.22l-.8 3.96"/><path fill="#fff" d="M83.94 31c-.87 1.87-1.7 2.96-2.18 3.47-.5.5-1.45 1.67-3.76 1.58l.2-1.43c1.95-.6 3-3.36 3.6-4.58l-.72-8.96 1.5-.02h1.28l.13 5.62 2.36-5.62h2.4L83.94 31"/><path fill="#fff" d="M77.23 21.74l-.96.66c-1-.8-1.9-1.28-3.66-.45-2.38 1.12-4.38 9.76 2.2 6.92l.38.45 2.6.07 1.7-7.86-2.25.2m-1.48 4.3c-.4 1.23-1.34 2.06-2.07 1.82-.73-.22-1-1.43-.57-2.68.43-1.25 1.37-2.07 2.1-1.83.72.22.98 1.43.55 2.68"/></g></g></g></svg>