<svg fill="none" height="60" viewBox="0 0 100 60" width="100" xmlns="http://www.w3.org/2000/svg"><path d="m100 56.4629c0 1.9651-1.6529 3.5371-3.719 3.5371h-92.562c-2.06611 0-3.719-1.572-3.719-3.5371v-52.92578c0-1.96506 1.65289-3.53712 3.719-3.53712h92.562c2.0661 0 3.719 1.57206 3.719 3.53712z" fill="#1a1f71"/><path d="m38.0166 17.4236-11.1571 25.2838h-7.3003l-5.5096-20.1746c-.2755-1.1791-.6887-1.7031-1.6529-2.2271-1.6529-.786-4.4077-1.7031-6.7493-2.0961l.13774-.786h11.70796c1.5152 0 2.8926.917 3.1681 2.6201l2.8925 14.6725 7.1626-17.1616h7.3003zm28.5123 17.0306c0-6.6813-9.6418-7.0743-9.6418-9.9564 0-.917.9642-1.834 2.8925-2.0961.9642-.131 3.719-.262 6.7493 1.1791l1.2397-5.3712c-1.6529-.524-3.719-1.179-6.4738-1.179-6.7493 0-11.5703 3.4061-11.5703 8.3843 0 3.6681 3.4436 5.6331 6.0606 6.8122 2.6171 1.179 3.5813 1.965 3.5813 3.1441 0 1.703-2.0661 2.4891-4.1322 2.4891-3.4435 0-5.5097-.9171-7.0248-1.5721l-1.2397 5.5022c1.6529.655 4.5455 1.31 7.5758 1.31 7.1625 0 11.8457-3.4061 11.9834-8.6462zm17.9064 8.2532h6.3361l-5.5097-25.2838h-5.9228c-1.3775 0-2.4794.786-2.8926 1.8341l-10.3306 23.4497h7.1626l1.3774-3.7991h8.8154zm-7.7135-8.9083 3.5813-9.4323 2.0661 9.4323zm-28.9256-16.3755-5.6474 25.2838h-6.8871l5.6474-25.2838z" fill="#fff"/></svg>