<svg xmlns="http://www.w3.org/2000/svg" width="100" height="60"><title>JCB-dark</title><desc>Created with Sketch.</desc><g fill="none"><g><g transform="translate(-290 -264) translate(290 264)"><rect width="100" height="60" fill="#12438C" rx="4"/><path fill="#fff" d="M63.5 30.8H67.35c.03 0 .05 0 .08 0 .02 0 .04.02.06.02.03 0 .05 0 .08 0 .02 0 .04 0 .06 0 .02 0 .04 0 .06.02.03 0 .05 0 .07 0 0 0 .03 0 .04 0l.03.02c.02 0 .05 0 .07.02.02 0 .04 0 .06.02.02 0 .04 0 .07.02.02 0 .04 0 .06.02 0 0 .03.02.05.03.03 0 .05.02.07.03.02 0 .04.02.06.04.02 0 .05.02.07.03.02.02.04.03.06.05.03 0 .06.03.08.04.02.02.04.04.06.05.02.03.04.05.07.07.03.02.05.04.07.06.02.02.04.05.06.07.03.03.05.05.07.08.02.03.04.06.06.1.03.02.05.05.07.1.02.03.04.07.06.1 0 .06.04.1.06.16.02.07.04.15.06.22.03.13.05.27.05.4 0 .15-.02.3-.05.42-.02.08-.04.15-.06.22-.02.05-.05.1-.07.15-.03.04-.05.08-.07.12-.02.04-.04.07-.07.1-.02.04-.04.06-.06.1-.02.02-.04.05-.07.07-.02.02-.04.05-.06.07-.02.03-.04.05-.06.07-.02.02-.04.04-.06.06-.02.02-.04.03-.06.05-.02.02-.05.03-.07.05 0 0-.03.02-.05.04-.02 0-.05.02-.07.04-.02.02-.04.03-.06.04-.02 0-.04.02-.07.03-.02 0-.04.02-.06.03-.03 0-.05.02-.07.02-.03 0-.05.02-.07.02-.02 0-.04.02-.06.02-.02 0-.05 0-.07.02h-.02s-.02 0-.03 0c-.02.02-.04.02-.07.02-.02 0-.04 0-.06 0-.02 0-.04.02-.06.02-.03 0-.05 0-.07 0 0 0-.03 0-.05 0-.03 0-.05 0-.07 0h-3.9v-3.5zm5.17-3.97c.03.12.04.24.04.37s0 .26-.03.38c-.02.07-.04.15-.06.22 0 .05-.04.1-.06.14-.02.04-.04.08-.06.12-.02.03-.05.07-.07.1 0 .03-.03.05-.05.08-.02.03-.04.05-.07.07-.02.04-.04.06-.06.08-.02.02-.04.04-.07.05-.02.02-.04.04-.06.06-.03 0-.05.02-.07.03-.03.02-.05.03-.07.04-.02.02-.04.03-.06.04-.02.02-.05.03-.07.05-.02 0-.04.02-.06.03-.02 0-.04 0-.07.02-.02 0-.04.02-.06.03-.02 0-.04 0-.06.02-.03 0-.05 0-.07.02 0 0-.03 0-.05 0-.02.02-.05.02-.07.02-.03 0-.04 0-.06 0-.02 0-.04 0-.07 0-.02 0-.04.02-.06.02-.03 0-.05 0-.08 0-.02 0-.04 0-.06 0-.02 0-.04 0-.06 0h-3.5V25.6h3.57c.02 0 .04 0 .06 0 .03 0 .05 0 .07 0 0 0 .03 0 .05 0 .03.02.05.02.07.02.02 0 .03 0 .05 0 .03 0 .06.02.08.02.02 0 .04 0 .06.02.03 0 .05 0 .08.02.02 0 .04 0 .06.02.02 0 .04 0 .06.02.03 0 .05.02.07.03.02 0 .04.02.06.03.02 0 .05.02.07.03.02 0 .04.02.06.03.02 0 .04.03.07.04.02.02.04.03.06.05 0 .02.03.03.05.05.03.02.05.04.07.06.02.02.04.04.06.06.03.02.05.04.07.07.02.02.04.05.06.08.03.03.06.06.08.1.02.03.04.07.06.1.02.06.05.1.07.16.03.08.05.15.07.23zM76.65 10h.03v33.34c0 .2 0 .4-.03.6 0 .16-.03.33-.06.5-.03.1-.05.22-.08.33-.02.1-.04.18-.06.27-.02.08-.04.15-.07.23-.03.07-.05.13-.07.2-.02.06-.04.12-.06.18-.02.06-.05.12-.07.17-.02.05-.04.1-.06.16-.02.04-.05.1-.07.14-.02.05-.04.1-.06.14 0 .04-.03.08-.06.13-.02.03-.04.07-.06.1-.02.05-.04.08-.06.12-.03.04-.05.08-.07.1-.02.05-.04.08-.06.12-.03.03-.06.07-.08.1-.02.04-.04.07-.06.1-.02.03-.05.06-.07.1-.03.03-.05.06-.07.1-.02.02-.04.05-.07.07-.02.04-.04.07-.06.1-.02.03-.04.05-.06.08-.03.03-.05.06-.07.08-.02.03-.04.05-.06.08 0 .02-.04.05-.06.07-.02.04-.04.06-.06.1-.02 0-.04.03-.07.06 0 .02-.03.04-.05.07-.02.02-.04.04-.06.06-.04.02-.06.04-.08.06-.02.02-.04.04-.06.06-.03.02-.05.04-.07.06-.03.02-.05.04-.07.06-.02.02-.05.04-.07.06-.02.02-.04.04-.06.06-.02.02-.04.04-.07.06-.02 0-.04.03-.06.05-.02.02-.04.04-.06.05-.02.02-.04.04-.06.05-.02.02-.04.04-.06.05-.02.02-.05.04-.07.05 0 .02-.03.04-.05.05-.02.02-.04.03-.07.05-.02 0-.04.03-.06.04-.02.03-.04.04-.07.06-.02 0-.04.03-.06.04-.03.02-.05.03-.07.04-.03.02-.05.03-.07.04-.02.02-.04.03-.06.04-.02.02-.05.03-.07.04l-.06.04c-.02 0-.04.03-.07.04-.02 0-.04.02-.06.04-.02 0-.04.02-.06.03-.03.02-.05.03-.07.04 0 .02-.03.03-.05.04-.02 0-.05.02-.07.03-.02.02-.04.03-.06.04-.02 0-.04.02-.07.03l-.06.03-.08.03c-.02 0-.04.02-.06.03-.02 0-.04.02-.06.03-.03 0-.05 0-.07 0-.02.02-.04.03-.06.04-.02 0-.05.02-.07.03-.02 0-.04 0-.06.02h-.07c-.02.02-.04.03-.06.04 0 0-.03 0-.05.02-.03 0-.05 0-.07.02l-.06.02c-.02 0-.05 0-.07.02l-.06.02c-.03 0-.05 0-.08.02-.02 0-.04 0-.06.02-.02 0-.04 0-.07 0l-.07.03-.06.03h-.07c-.02.02-.04.02-.06.03-.02 0-.05 0-.07 0l-.06.02h-.06c-.02.02-.04.02-.06.03-.02 0-.04 0-.06.02h-.07l-.06.02h-.08c-.02 0-.04 0-.06.02-.02 0-.04 0-.07 0-.03 0-.05 0-.07 0-.02 0-.04 0-.07.02-.02 0-.04 0-.06 0-.02 0-.04 0-.06 0-.03 0-.05 0-.07 0l-.06.02s-.04 0-.06 0c-.02 0-.04 0-.06 0H70.16c-.02 0-.04 0-.06 0H60.2V36.4H70.73c.02 0 .04 0 .06 0 .02 0 .04 0 .06 0h.25l.06-.02c.02 0 .04 0 .06 0 .03 0 .05 0 .07 0l.07-.02c.02 0 .05 0 .07 0 .02 0 .04 0 .06-.02.02 0 .04 0 .07 0l.06-.02h.06c.02 0 .04-.02.06-.02.02 0 .04 0 .06 0l.07-.03s.03 0 .05 0c.02-.02.05-.02.07-.03.02 0 .04 0 .06 0 .02-.02.04-.03.07-.03.02 0 .04 0 .06 0 .03-.02.05-.02.07-.03l.07-.02c.02 0 .04 0 .06-.02.02 0 .05-.02.07-.02.02 0 .04 0 .06-.02.02 0 .04 0 .07-.02.02 0 .04-.02.06-.03.02 0 .04 0 .06-.02.03 0 .05 0 .07-.02 0 0 .03-.02.05-.03.03 0 .05-.02.07-.03.02 0 .04-.02.06-.03.02-.02.05-.03.07-.04.02 0 .04-.03.06-.04.03 0 .05-.02.08-.03.02-.03.04-.04.06-.05.02 0 .04-.03.06-.04.03 0 .05-.02.07-.03.02 0 .04-.03.06-.04.02-.02.05-.03.07-.05.02 0 .04-.03.06-.05.02 0 .05-.03.07-.04.02-.03.04-.05.06-.07 0 0 .03-.03.05-.05.03-.02.05-.04.07-.06.02-.02.04-.04.06-.06.03-.02.05-.04.07-.06.02-.02.04-.04.06-.07.03-.02.06-.04.08-.07.02-.02.04-.05.06-.07.02-.04.04-.07.07-.1.03-.02.05-.05.07-.08.02-.03.04-.06.06-.1.03-.03.05-.06.07-.1.02-.04.04-.07.06-.1.03-.05.05-.1.07-.14.02-.05.04-.1.06-.14.02-.06.04-.12.06-.18.02-.07.04-.14.06-.22.03-.1.05-.22.07-.33 0-.13 0-.27 0-.42 0-.14 0-.28 0-.42-.03-.1-.05-.22-.08-.32-.02-.07-.04-.14-.06-.2-.02-.07-.04-.13-.07-.18-.03-.05-.05-.1-.07-.14-.02-.04-.04-.08-.07-.12-.02-.04-.04-.08-.06-.1-.02-.05-.04-.08-.07-.1-.02-.04-.04-.07-.06-.1-.02-.03-.04-.06-.06-.1-.02 0-.04-.04-.06-.07-.02-.02-.04-.04-.06-.07-.02-.02-.05-.04-.07-.07 0-.03-.03-.05-.05-.07-.02-.02-.04-.04-.07-.06-.02-.02-.04-.04-.06-.06-.02 0-.04-.03-.07-.04-.02-.02-.04-.04-.06-.06-.03 0-.05-.03-.07-.05-.03 0-.05-.03-.07-.04-.02 0-.04-.02-.06-.04-.02 0-.05-.03-.07-.04-.02-.02-.04-.03-.06-.04-.02-.02-.04-.03-.07-.04-.02-.02-.04-.03-.06-.04-.02 0-.04-.03-.06-.04-.03 0-.05-.02-.07-.03 0 0-.03-.02-.05-.04-.02-.02-.05-.03-.07-.04-.02 0-.04-.02-.06-.03-.02 0-.04-.02-.07-.03-.02 0-.04-.02-.06-.03-.03 0-.05 0-.08-.02-.02 0-.04-.02-.06-.03-.02 0-.04-.02-.06-.02-.03 0-.05-.02-.07-.03-.02 0-.04 0-.06-.02-.02 0-.05 0-.07-.02-.02 0-.04-.02-.06-.02-.02 0-.04 0-.07 0l-.06-.03s-.03 0-.05-.02c-.03 0-.05 0-.07-.02-.02 0-.04 0-.06 0-.02-.02-.05-.02-.07-.03-.02 0-.04 0-.06 0-.03-.02-.05-.02-.08-.03-.02 0-.04 0-.06 0l-.07-.02h-.07c-.02-.02-.04-.02-.06-.02h-.07c-.02-.02-.04-.02-.06-.02h-.13l-.06-.02h-.12l-.07-.02H71v-.08h.05l.07-.02c.02 0 .04 0 .06 0l.06-.02c.03 0 .05 0 .07 0l.07-.03c.02 0 .05 0 .07 0 .02 0 .04 0 .06-.02.02 0 .04 0 .07-.02.02 0 .04 0 .06 0 .02-.02.04-.03.06-.03.02 0 .04-.02.06-.02.02 0 .04 0 .06 0 .03-.02.05-.03.07-.04 0 0 .03 0 .05-.02.02 0 .05-.02.07-.02.02 0 .04-.02.06-.03.02-.02.04-.03.07-.04.02 0 .04-.02.06-.03.03 0 .05-.02.07-.03.03 0 .05-.02.07-.03.02 0 .04-.02.06-.03.02 0 .05-.03.07-.04.02 0 .04-.02.06-.03.02-.02.04-.03.07-.04.02-.02.04-.03.06-.04.02-.03.04-.04.06-.06.03 0 .05-.02.07-.04 0-.02.03-.03.05-.05.03 0 .05-.03.07-.05.02 0 .04-.03.06-.05.02-.02.05-.03.07-.05.02-.02.04-.04.06-.06.03-.02.05-.04.08-.06.02-.03.04-.05.06-.07.02 0 .04-.04.06-.06.03-.02.05-.05.07-.07.02-.03.04-.06.06-.08.03-.04.05-.07.07-.1.02-.03.04-.06.06-.1.02-.03.05-.06.07-.1.02-.03.04-.07.06-.1 0-.05.03-.1.05-.14.03-.05.05-.1.07-.14.02-.06.04-.12.06-.18.03-.07.05-.15.07-.23.03-.1.05-.24.06-.37.02-.1.03-.2.03-.3 0-.12 0-.23-.02-.33 0-.14-.02-.27-.05-.4-.02-.07-.04-.15-.07-.22-.02-.06-.04-.12-.06-.18-.02-.04-.04-.1-.07-.14-.02-.04-.04-.08-.06-.13-.03-.03-.05-.07-.07-.1-.02-.04-.05-.07-.07-.1-.02-.04-.04-.07-.06-.1-.02-.03-.04-.05-.07-.08-.02-.03-.04-.05-.06-.08-.02-.02-.04-.05-.07-.07-.02-.02-.04-.05-.06-.07-.02-.02-.04-.04-.06-.06-.03-.02-.05-.04-.07-.06 0 0-.03-.03-.05-.05-.02-.02-.05-.03-.07-.05-.02-.02-.04-.03-.06-.05-.02-.02-.04-.03-.07-.05-.02 0-.04-.03-.06-.04-.03-.02-.05-.03-.08-.05-.02 0-.04 0-.06-.03-.02 0-.04-.02-.06-.04-.03 0-.05-.02-.07-.03-.02-.02-.04-.03-.06-.04-.02 0-.05-.02-.07-.03-.02 0-.04-.02-.06-.04-.02-.02-.04-.03-.07-.04-.02 0-.04-.02-.06-.03 0 0-.03 0-.05-.02-.03 0-.05 0-.07-.02-.02 0-.04-.02-.06-.03-.02 0-.05 0-.07-.02-.02 0-.04-.02-.06-.02-.03 0-.05 0-.08-.02-.02 0-.04 0-.06-.02-.02 0-.04 0-.07-.02-.03 0-.05 0-.07-.02-.02 0-.04 0-.06 0-.03-.02-.05-.03-.07-.03l-.06-.03c-.02 0-.05 0-.07 0-.02-.02-.04-.02-.06-.03h-.06c-.02-.02-.04-.02-.06-.02-.02 0-.04 0-.06-.02h-.07c-.02 0-.04 0-.06-.02h-.08l-.06-.02h-.14l-.07-.02h-.12l-.07-.02h-.25l-.05-.02H60.2v-6.94c0-.46.04-.92.13-1.36.02-.1.05-.2.07-.28.02-.08.04-.16.06-.23 0-.08.04-.15.06-.22.02-.06.04-.13.06-.2.02-.05.04-.1.07-.16 0-.05.03-.1.05-.16.02-.05.04-.1.07-.14.02-.05.04-.1.06-.14.02-.05.04-.1.06-.13.03-.04.05-.08.07-.13.03-.04.05-.07.07-.1.02-.05.05-.1.07-.13.02-.04.04-.08.06-.1.02-.05.04-.08.07-.12.02-.03.04-.06.06-.1.02-.03.04-.06.06-.1.02-.02.04-.05.06-.08.02-.03.04-.06.06-.1.02-.02.05-.05.07-.08 0-.03.03-.05.05-.08.02-.03.04-.06.07-.08.02-.03.04-.05.06-.08.02-.03.04-.05.07-.08.02-.02.04-.04.06-.07.03-.02.05-.05.07-.07.03-.02.05-.05.07-.07.02-.03.04-.05.06-.08.02-.02.05-.04.07-.06.02-.02.04-.05.06-.07.02-.03.04-.05.07-.07.02-.02.04-.04.06-.06.02-.02.04-.04.06-.06.03 0 .05-.03.07-.05 0 0 .03-.03.05-.05.02-.02.05-.04.07-.06.02 0 .04-.03.06-.05.02-.03.04-.04.07-.06l.06-.05.08-.06c.02-.02.04-.03.06-.05.02-.03.04-.04.06-.06l.07-.04c.02-.02.04-.03.06-.05l.07-.04.06-.03c.02-.02.04-.03.07-.04l.06-.04c0-.03.03-.04.05-.05.03-.02.05-.03.07-.04.02 0 .04-.02.06-.03.02 0 .05-.02.07-.04.02 0 .04-.02.06-.03.03 0 .06-.02.08-.04.02 0 .04-.02.06-.03.02 0 .04-.02.07-.03.03 0 .05-.02.07-.03l.06-.04c.03 0 .05-.02.07-.03.02 0 .04-.02.06-.03.02 0 .05 0 .07-.02.02 0 .04-.02.06-.03 0 0 .03-.02.06-.03.02-.02.04-.03.06-.03l.06-.03.07-.02c.02 0 .04-.02.06-.03.03-.02.06-.02.08-.03.02 0 .04-.02.06-.02.02 0 .05-.02.07-.03l.07-.02c.02 0 .04 0 .07-.02.02 0 .04 0 .06-.02.02 0 .04 0 .06 0 .03-.02.05-.03.07-.03.02 0 .04 0 .06-.02h.06c.02 0 .04-.02.06-.02.02 0 .04 0 .07-.02 0 0 .03 0 .05 0l.06-.03h.08c.02 0 .04-.02.06-.02.02 0 .05 0 .07 0 .03 0 .05 0 .07 0l.07-.03c.02 0 .04 0 .06 0 .02 0 .04 0 .07 0 .02-.02.04-.02.06-.02.02 0 .04 0 .06 0l.06-.02c.02 0 .04 0 .06 0 .02 0 .05 0 .07 0l.05-.02h.07c.02 0 .04 0 .06 0 .02 0 .04 0 .06 0 .03 0 .05 0 .07 0h.07c.03 0 .05 0 .07 0 .02 0 .04 0 .06 0 .02 0 .05 0 .07 0H76.63zM23.46 33.2c-.05-.02-.1-.04-.14-.07V16.66c0-.46.05-.92.14-1.36.02-.1.04-.18.06-.27.02-.08.05-.16.07-.24 0-.08.03-.15.05-.22.02-.06.04-.12.07-.2.02-.04.04-.1.06-.16.02-.05.04-.1.07-.15.02-.05.04-.1.06-.15.03-.05.05-.1.07-.14.02-.04.05-.1.07-.13.02-.04.04-.08.06-.12.02-.04.04-.08.07-.12.02-.03.04-.07.06-.1.02-.04.04-.07.07-.1.02-.04.04-.08.06-.1.02-.05.04-.08.06-.1.02-.04.05-.08.07-.1 0-.04.03-.07.05-.1.02-.03.04-.06.07-.1.02-.02.04-.05.06-.07.02-.03.04-.06.06-.1.03-.02.05-.04.07-.07.03-.02.05-.05.07-.08.02-.02.05-.05.07-.07.02-.02.04-.04.06-.07.02-.02.04-.04.07-.07.02-.02.04-.04.06-.07.02-.03.04-.05.06-.07.02-.03.04-.05.06-.07.02-.02.04-.04.06-.06.02-.02.05-.04.07-.07 0-.02.03-.04.05-.06.02-.02.04-.04.07-.05.02-.02.04-.04.06-.06.02-.02.04-.04.06-.06.03-.02.05-.03.07-.05.03-.02.05-.04.07-.06.02-.02.05-.04.07-.06.02 0 .04-.03.06-.05.02-.02.04-.04.07-.06.02 0 .04-.03.06-.05l.06-.05c.02-.02.04-.03.06-.05.02 0 .04-.03.06-.04.02-.02.05-.03.07-.05 0 0 .03 0 .05-.03.02 0 .04-.03.07-.04.02 0 .04-.03.06-.04.02-.02.04-.04.06-.05.03 0 .05-.03.07-.04.03 0 .05 0 .07-.03.02 0 .05-.02.07-.03.02 0 .04-.03.06-.04.02 0 .04-.02.07-.03.02 0 .04-.03.06-.04.02 0 .04-.02.06-.03l.06-.03c.02 0 .04-.02.06-.03.02 0 .05-.02.07-.03 0 0 .03 0 .05-.02.02 0 .04-.02.07-.03.02 0 .04-.02.06-.03.02 0 .04-.02.06-.03l.07-.03.07-.03.07-.02c.02 0 .04-.02.06-.03.02 0 .04-.02.07-.03.02 0 .04 0 .06-.02l.06-.02.06-.02c.02 0 .04 0 .06 0 .02-.02.05-.03.07-.03 0 0 .03-.02.05-.02.02 0 .04 0 .07-.02l.06-.02c.02 0 .04 0 .06 0 .02 0 .05 0 .07-.02.03 0 .05 0 .07-.02.02 0 .04 0 .07 0l.06-.02c.02 0 .04 0 .06-.02.03 0 .05 0 .07 0 .02 0 .04-.02.06-.02 0 0 .04 0 .06 0l.06-.02c.02 0 .04 0 .07 0 0-.02.03-.02.05-.02.02 0 .04 0 .06 0l.08-.02h.06c.02 0 .05 0 .07 0 .03-.02.05-.02.07-.02h.07c.02 0 .04 0 .06 0 .02 0 .04 0 .06-.02.03 0 .05 0 .07 0 .02 0 .04 0 .06 0h.06c.02 0 .04 0 .06 0 .02 0 .04 0 .07 0 0 0 .03 0 .05 0H39.82v33.34c0 .3-.02.58-.05.86-.02.13-.04.26-.07.4-.02.1-.04.2-.06.3-.03.08-.05.16-.07.24-.02.08-.05.15-.07.22-.02.06-.04.13-.06.2-.02.05-.05.1-.07.17-.02.05-.04.1-.06.16-.02.04-.04.1-.07.14-.02.04-.04.1-.06.14-.02.04-.04.1-.06.13-.03.05-.05.1-.07.14 0 .04-.03.08-.05.12-.02.03-.05.07-.07.1-.02.05-.04.08-.06.12-.02.03-.04.07-.07.1-.02.04-.04.07-.06.1-.03.04-.05.07-.07.1-.03.03-.05.06-.07.1-.02.02-.04.05-.06.08-.02.03-.05.06-.07.1-.02.02-.04.05-.06.07-.02.03-.04.06-.07.08-.02.04-.04.07-.06.1-.02.02-.04.04-.06.07-.03.02-.05.05-.07.07 0 .03-.03.05-.05.08-.02.02-.05.04-.07.07-.02 0-.04.03-.06.05-.02.03-.04.05-.07.07-.02.02-.04.04-.06.06-.03.03-.05.05-.07.07-.03.02-.05.04-.07.06-.02.03-.04.05-.06.07-.02.02-.05.04-.07.06-.02 0-.04.03-.06.05-.02.02-.04.04-.07.06-.02 0-.04.03-.06.05-.02 0-.04.03-.06.04-.03.02-.05.04-.07.05 0 0-.03.03-.05.04-.02.02-.05.04-.07.05-.02 0-.04.02-.06.04-.02 0-.04.03-.07.05-.02 0-.04.02-.06.03-.03 0-.05.03-.07.04-.02.02-.05.03-.07.05-.02 0-.04.02-.06.04-.02 0-.05.03-.07.04-.02 0-.04.03-.06.04-.02 0-.04.02-.07.04-.02 0-.04.02-.06.04-.02 0-.04.02-.06.03-.02 0-.05.03-.07.04 0 0-.03 0-.05.02l-.07.04c-.02 0-.04.02-.06.03-.02 0-.04 0-.06.02-.03 0-.05.02-.07.03-.03 0-.05.02-.07.03-.02 0-.05.02-.07.03-.02.02-.04.03-.06.04l-.07.03-.06.03c-.02 0-.04 0-.06.02-.02 0-.04.02-.06.03-.02 0-.04.02-.06.02-.02 0-.05.02-.07.03 0 0-.03 0-.05.02l-.07.02-.06.03c-.02 0-.04 0-.06.02-.03 0-.05 0-.07 0-.03 0-.05.02-.07.03l-.07.02h-.06c-.02.02-.04.03-.07.03-.02 0-.04 0-.06.02-.02 0-.04 0-.06.02-.02 0-.04 0-.06 0l-.06.03h-.07s-.03.02-.05.02c-.02 0-.04 0-.07.02-.02 0-.04 0-.06 0h-.06c-.03 0-.05.02-.07.02-.03 0-.05 0-.07 0-.02 0-.05.02-.07.02H34c-.02 0-.04.02-.07.02-.02 0-.04 0-.06 0-.02 0-.04 0-.06 0-.02 0-.04.02-.06.02h-.06c-.02 0-.05 0-.07 0 0 0-.03 0-.05 0l-.07.02h-.06c-.02 0-.04 0-.06 0-.03 0-.05 0-.07 0-.03 0-.05 0-.07 0h-.07c-.02 0-.04 0-.06 0H23.3V35.96s.05.02.14.04h.06l.07.02.05.02h.07l.06.03h.07l.06.03h.07l.07.02.06.02h.07l.06.03h.07l.06.02h.06l.07.02h.05l.07.02.06.02h.06l.07.02h.07l.07.02H25l.07.03h.06l.06.02h.06l.06.02h.07l.05.02h.13l.06.02h.07l.07.02h.07l.06.02h.07l.06.02h.06l.06.02h.06l.07.02H26.4l.06.02h.06l.07.02h.14l.06.02h.07l.06.02h.12l.06.02H27.24l.07.02h.19l.07.02h.13l.07.02h.18l.06.02h.19l.06.02h.27l.06.02h.31l.07.02H29.57l.07.02H31.03l.07-.02h.33l.06-.02h.24l.06-.02H32.02l.07-.02h.13l.06-.02h.13l.06-.02h.06l.06-.02h.13l.08-.02h.06c.02 0 .04-.02.07-.02h.07l.06-.02h.07c.02 0 .04-.02.06-.02h.07c.02 0 .04-.02.06-.02 0 0 .03 0 .06 0l.06-.03h.13c.02 0 .04-.02.06-.02l.08-.02h.06c.02-.02.04-.02.07-.02l.07-.02c.02 0 .04 0 .06 0 .03-.02.05-.02.07-.03l.06-.03c.02 0 .05 0 .07 0 .02-.02.04-.02.06-.03l.06-.02c.02 0 .04 0 .06 0 .02-.02.04-.02.06-.03l.07-.03c.02 0 .04 0 .06-.02l.08-.02.06-.02c.02 0 .04 0 .07 0l.07-.03.06-.02c.03 0 .05-.02.07-.02.02 0 .04-.02.06-.03l.07-.02c.02 0 .04-.02.06-.02 0 0 .03-.02.06-.03.02 0 .04-.02.06-.02l.06-.02.07-.03c.02 0 .04 0 .06-.02.03 0 .06-.02.08-.03l.06-.03.07-.03c.03 0 .05-.02.07-.03.02 0 .04 0 .06-.02.03 0 .05-.03.07-.04.02 0 .04-.02.06-.03.02 0 .05 0 .07-.02.02-.02.04-.03.06-.04 0 0 .03-.02.06-.04.02 0 .04-.02.06-.03.02-.02.04-.03.06-.04.03-.02.05-.03.07-.04.02-.03.04-.04.06-.05.03-.02.06-.03.08-.05.02 0 .04-.02.06-.04.02 0 .04-.03.06-.04.03-.02.05-.04.07-.05.02-.02.04-.03.06-.05.03-.02.05-.03.07-.05.02-.02.04-.03.06-.05.02-.02.05-.04.07-.06.02 0 .04-.03.06-.05 0 0 .03-.03.05-.05.03-.02.05-.04.07-.06.02-.03.04-.05.06-.07.03-.02.05-.04.07-.07.02-.02.04-.04.06-.06.03-.03.05-.05.08-.07.02-.03.04-.05.06-.08.02-.02.04-.05.06-.08.03-.02.05-.05.07-.08.02-.04.04-.07.06-.1.03-.02.05-.06.07-.1.02-.02.04-.05.06-.08.02-.04.05-.07.07-.1.02-.04.04-.08.06-.1 0-.05.03-.1.05-.13.03-.06.05-.1.07-.14.02-.05.04-.1.06-.14.03-.05.05-.1.07-.16.02-.05.04-.1.06-.17.03-.07.06-.14.08-.2.02-.1.04-.17.06-.25.02-.1.05-.2.06-.3.03-.15.05-.3.07-.46.02-.23.03-.45.03-.67V23.6H32.7v7.73c0 .12 0 .24 0 .35-.02.15-.05.3-.08.44 0 .1-.03.17-.06.26-.02.06-.04.13-.06.2-.02.05-.05.1-.07.16-.03.04-.05.1-.07.14-.02.04-.04.08-.07.12-.02.04-.04.08-.06.1-.02.05-.04.08-.06.1-.03.05-.05.08-.07.1-.02.04-.04.07-.06.1 0 .02-.04.05-.06.07-.02.03-.04.05-.06.08-.02.02-.04.04-.07.07 0 .02-.03.04-.05.06-.02.02-.04.04-.06.06-.04.02-.06.04-.08.06-.02.02-.04.04-.06.05-.02.02-.05.04-.07.06-.03.02-.05.04-.07.05-.02.02-.04.03-.07.05-.02 0-.04.03-.06.04-.02.02-.04.03-.06.04-.03.02-.05.03-.07.04-.02 0-.04.03-.06.04 0 0-.04.02-.06.03-.02 0-.04.02-.06.03-.02 0-.04.02-.07.03 0 0-.03.02-.05.03-.02 0-.04 0-.06.02-.04 0-.06 0-.08.02-.02 0-.04.02-.06.03-.02 0-.05 0-.07.02-.03 0-.05 0-.07 0-.02.02-.04.03-.07.03-.02 0-.04.02-.06.02-.02 0-.04.02-.06.02-.03 0-.05 0-.07.02-.02 0-.04 0-.06 0 0 0-.04 0-.06.02-.02 0-.04 0-.06 0-.02.02-.04.02-.07.03 0 0-.03 0-.05 0-.02 0-.04.02-.06.02h-.08c-.02 0-.04 0-.06.02-.02 0-.05 0-.07 0h-.07c-.02 0-.04 0-.07 0-.02 0-.04 0-.06 0-.02.02-.04.02-.06.02-.03 0-.05 0-.07 0-.02 0-.04 0-.06 0 0 0-.04 0-.06 0h-.06c-.02 0-.04 0-.07 0H28.38l-.06-.02h-.19l-.06-.02h-.14l-.07-.02h-.07l-.06-.02h-.13l-.07-.02h-.06l-.06-.02h-.06l-.06-.03h-.07l-.06-.02h-.08l-.06-.02H27l-.07-.03h-.06l-.07-.02-.06-.02h-.07l-.06-.03h-.06l-.06-.03-.06-.02h-.07l-.06-.03h-.08l-.06-.03-.07-.02-.07-.02-.06-.02h-.07l-.06-.03-.07-.02h-.06l-.06-.03-.06-.02-.06-.02-.07-.02-.06-.02-.08-.02-.06-.02-.07-.02-.07-.03-.06-.03-.07-.02-.06-.02-.07-.03-.06-.02-.06-.03-.06-.02-.06-.03-.07-.02-.06-.03-.08-.02-.06-.03-.06-.03-.07-.02-.06-.03-.07-.03-.06-.04-.07-.03-.06-.02-.05-.02-.07-.03-.06-.03-.07-.03-.06-.04-.08-.03-.06-.03zM41.9 25.28c-.03.04-.08.07-.13.1v-8.72c0-.46.05-.92.14-1.35.03-.1.05-.18.08-.27.02-.08.04-.16.06-.24.02-.08.04-.15.06-.22.03-.06.05-.12.07-.18.02-.06.04-.12.06-.18.02-.05.05-.1.07-.15.02-.05.04-.1.06-.15.02-.05.04-.1.07-.14.02-.04.04-.1.06-.13 0-.04.03-.08.05-.12.03-.04.05-.08.07-.12.02-.03.04-.06.06-.1.02-.04.05-.07.07-.1.02-.04.04-.08.06-.1.03-.05.05-.08.08-.1.02-.04.04-.08.06-.1.02-.04.04-.07.06-.1.03-.03.05-.06.07-.1.02-.02.04-.05.06-.07.02-.03.05-.06.07-.1.02 0 .04-.04.06-.07.02-.02.04-.05.07-.08.02-.02.04-.05.06-.07 0-.02.03-.04.05-.06.03-.03.05-.05.07-.08.02-.02.04-.04.06-.07.02-.03.05-.05.07-.07.02-.02.04-.05.06-.07.03-.02.05-.04.08-.06.02-.02.04-.04.06-.06.02-.03.04-.04.06-.06.03-.02.05-.04.07-.06.02-.02.04-.04.06-.06.02-.02.05-.04.07-.06.02-.02.04-.03.06-.05.02-.02.04-.04.07-.06.02-.02.04-.04.06-.06 0 0 .03-.03.05-.05.03-.02.05-.04.07-.06.02 0 .04-.03.06-.05.02-.02.05-.04.07-.05.02-.02.04-.03.06-.05.03 0 .05-.03.08-.04.02-.02.04-.03.06-.05.02 0 .04 0 .06-.03.03 0 .05-.03.07-.04.02 0 .04-.03.06-.04.02-.02.05-.04.07-.05.02 0 .04-.03.06-.04.02 0 .04 0 .07-.03.02 0 .04-.02.06-.03 0 0 .03-.03.05-.04.03 0 .05-.02.07-.03.02 0 .04-.02.06-.04l.07-.03.06-.03c.03 0 .05-.02.08-.03.02 0 .04-.02.06-.03.02 0 .04 0 .06-.02.02 0 .05-.02.07-.03.02 0 .04-.02.06-.03.02 0 .04-.02.07-.02l.06-.03c.02 0 .04-.02.06-.03.03 0 .05 0 .07-.02 0 0 .03-.02.05-.03.02 0 .05-.02.07-.03.02 0 .04 0 .06-.02.02 0 .04-.02.07-.02l.06-.02c.03 0 .05 0 .07 0 .03-.02.05-.03.07-.03.02 0 .04-.02.06-.02.02 0 .05 0 .07-.02l.06-.02c.02 0 .04 0 .07 0 .02 0 .04 0 .06-.02.02 0 .04 0 .06-.02.03 0 .05 0 .07 0l.05-.02c.02 0 .05 0 .07-.02.02 0 .04 0 .06 0 .02 0 .04-.02.07-.02h.06l.07-.02c.03 0 .05 0 .07 0 .02-.02.04-.02.06-.02.02 0 .05 0 .07 0l.06-.02h.07c.02 0 .04 0 .06 0 .02-.02.04-.02.06-.02h.07s.03 0 .05 0c.02 0 .05 0 .07-.02.02 0 .04 0 .06 0 .02 0 .04 0 .07 0h.06c.03 0 .05 0 .07 0 .03 0 .05 0 .07 0 .02 0 .04 0 .06 0H58.18v33.34c0 .3-.02.58-.06.86-.02.13-.04.26-.06.4 0 .1-.03.2-.06.3-.02.08-.04.16-.06.24-.02.08-.04.15-.07.22 0 .06-.03.13-.05.2-.02.05-.04.1-.06.17-.04.05-.06.1-.08.16-.02.04-.04.1-.06.14-.02.04-.05.1-.07.14-.03.04-.05.1-.07.13-.02.05-.04.1-.07.14-.02.04-.04.08-.06.12-.02.03-.04.07-.06.1-.03.05-.05.08-.07.12-.02.03-.04.07-.06.1 0 .04-.04.07-.06.1-.02.04-.04.07-.06.1-.02.03-.04.06-.07.1 0 .02-.03.05-.05.08-.02.03-.04.06-.06.1-.04.02-.06.05-.08.07-.02.03-.04.06-.06.08-.02.04-.05.07-.07.1-.03.02-.05.04-.07.07-.02.02-.04.05-.07.07-.02.03-.04.05-.06.08-.02.02-.04.04-.06.07-.03 0-.05.03-.07.05-.02.03-.04.05-.06.07 0 .02-.04.04-.06.06-.02.02-.04.05-.06.07-.02.02-.04.04-.07.06 0 .03-.03.05-.05.07-.02.02-.04.04-.06.05-.04.02-.06.04-.08.06-.02.02-.04.04-.06.06-.02 0-.04.03-.07.05-.03 0-.05.02-.07.04-.02.02-.04.04-.07.05-.02 0-.04.03-.06.04-.02.02-.04.04-.06.05-.02 0-.05.02-.07.04-.02 0-.04.03-.06.05 0 0-.03 0-.06.03-.02 0-.04.03-.06.04-.02.02-.04.03-.06.05-.03 0-.05.02-.07.04-.02 0-.04.03-.06.04-.03 0-.06.03-.08.04-.02 0-.04.02-.06.04-.02 0-.04.02-.07.04-.03 0-.05.02-.07.03l-.06.04-.07.02-.06.04c-.02 0-.05.02-.07.03-.02 0-.04 0-.06.02 0 0-.03.02-.06.03-.02 0-.04.02-.06.03-.02 0-.04.02-.06.03-.03.02-.05.03-.07.04l-.06.03-.08.03-.06.02c-.02 0-.04.02-.07.03-.03 0-.05.02-.07.02-.02 0-.04.02-.06.03-.03 0-.05 0-.07.02l-.06.02-.07.03c-.02 0-.04 0-.06.02 0 0-.03 0-.06 0-.02 0-.04.02-.06.03l-.06.02h-.07c-.02.02-.04.03-.06.03-.03 0-.06 0-.08.02-.02 0-.04 0-.06.02-.02 0-.04 0-.07 0l-.07.03h-.06c-.03 0-.05.02-.07.02-.02 0-.04 0-.06.02h-.13s-.03.02-.06.02c-.02 0-.04 0-.06 0-.02 0-.04.02-.06.02h-.07c-.02 0-.04.02-.06.02-.03 0-.06 0-.08 0-.02 0-.04 0-.06 0-.02 0-.04.02-.07.02h-.07c-.02 0-.04 0-.06 0-.03 0-.05 0-.07 0l-.06.02h-.07c-.02 0-.04 0-.06 0 0 0-.03 0-.06 0-.02 0-.04 0-.06 0h-.06c-.02 0-.04 0-.06 0H41.75V34.6c.05.05.1.1.14.12.03.02.05.04.08.06.02 0 .04.03.06.05.02 0 .04.03.06.04.03.02.05.04.07.05.02.02.04.03.06.05.02 0 .05.03.07.04l.06.06c.02 0 .04.03.07.04l.06.04c0 .02.03.03.05.04.03.02.05.03.07.04l.06.04c.02 0 .05.03.07.04.02 0 .04.02.06.04l.08.03.06.04.06.04c.03.02.05.03.07.04.02 0 .04.02.06.03l.07.04.06.04.07.03c.02.02.04.03.06.04l.05.03.07.03.06.03.07.02.06.03.08.03.06.03.06.03.07.02.06.03c.02.02.05.03.07.03l.06.03c.02 0 .04 0 .07.02.02 0 .04.02.06.02l.05.03.07.02c.02 0 .04 0 .06.02.02 0 .05 0 .07.02h.06l.08.03.06.02.06.02.07.02h.06l.07.02.06.02.07.02h.06l.05.03h.07l.06.02.07.02h.06l.08.03h.06l.06.03h.07l.06.02.07.02h.06l.06.02h.07l.05.03h.13l.07.02h.06l.07.02h.07l.06.02h.07l.06.02h.07l.06.02h.06l.07.02H47.1l.06.02h.13l.07.02h.13l.07.02h.13l.06.02h.18l.07.02h.19l.07.02h.33l.06.02h.51l.07.02H50.7l.06-.02H51.24l.06-.02h.24l.07-.02h.19l.07-.02h.2l.06-.02h.12l.06-.02H52.44l.07-.02h.12l.07-.02h.07l.07-.02h.13l.06-.02h.06l.06-.02h.06l.07-.02h.05l.07-.02h.12l.07-.02h.07l.07-.02h.06l.07-.02h.06l.06-.03h.06l.06-.02H54.24l.07-.02h.06l.06-.02h.07l.07-.03h.07l.06-.02h.13l.06-.03h.06l.06-.02h.07l.05-.03h.07l.06-.02.06-.02h.07l.07-.02.07-.02h.06l.06-.02.07-.02h.06l.06-.03h.06l.07-.02.05-.02h.06l.08-.03h.06l.07-.03.07-.02v-2.82l-.06.03-.06.04-.06.03-.07.03-.05.03-.06.02-.08.03-.06.03-.07.03-.07.04-.07.03-.06.03-.06.03-.07.02-.06.03-.06.03-.06.04-.06.02-.07.03h-.06l-.08.04-.06.03-.07.02-.07.02-.06.02-.07.02-.06.03h-.07l-.06.03-.06.02-.06.03-.06.02-.07.02-.06.02-.08.02-.06.02-.07.02-.07.02-.06.02-.07.02-.06.02h-.07l-.06.03-.06.03-.06.02h-.06l-.07.03h-.06l-.08.03-.06.02-.07.02h-.07l-.06.03h-.07l-.06.02h-.07l-.06.02h-.06l-.06.02-.06.02h-.07l-.06.02h-.08l-.06.02h-.07l-.07.02H52l-.06.02h-.07l-.06.02h-.12l-.06.02h-.13l-.08.02h-.2l-.06.02h-.51c-.02 0-.04 0-.06 0h-.27c-.02 0-.04 0-.06 0-.02 0-.05 0-.07 0h-.24c-.03-.02-.05-.02-.07-.02-.02 0-.04 0-.06 0h-.07l-.06-.02h-.08l-.06-.02h-.06c-.03 0-.05 0-.07 0-.02-.02-.04-.02-.06-.03-.02 0-.05 0-.07 0-.02 0-.04 0-.06-.02-.02 0-.04 0-.07 0-.02 0-.04 0-.06 0 0-.02-.03-.02-.05-.03-.03 0-.05 0-.07 0l-.06-.03c-.02 0-.05 0-.07 0-.02-.02-.04-.02-.06-.03-.03 0-.05 0-.08 0-.02 0-.04-.02-.06-.03-.02 0-.04 0-.06-.02-.03 0-.05 0-.07-.02-.02 0-.04 0-.06-.02-.02 0-.05 0-.07 0-.02-.02-.04-.02-.06-.03-.02 0-.04-.02-.07-.03-.02 0-.04 0-.06-.02 0 0-.03-.02-.05-.03-.03 0-.05-.02-.07-.03-.02 0-.04-.02-.06-.03-.02 0-.05-.02-.07-.03-.02 0-.04 0-.06-.02-.03 0-.05-.02-.08-.03-.02 0-.04-.02-.06-.04-.02 0-.04 0-.06-.02-.03 0-.05-.02-.07-.04-.02 0-.04-.02-.06-.03-.02 0-.05-.02-.07-.03-.02 0-.04-.03-.06-.04-.02-.02-.04-.03-.07-.04-.02-.03-.04-.04-.06-.06 0 0-.03-.03-.05-.04-.03-.02-.05-.03-.07-.05-.02-.02-.04-.03-.06-.05-.02-.02-.05-.03-.07-.05-.02-.02-.04-.04-.06-.05-.03-.02-.05-.04-.08-.06-.02-.02-.04-.04-.06-.06-.02-.02-.04-.04-.06-.06-.03-.02-.05-.04-.07-.06-.02-.03-.04-.05-.06-.07-.02-.04-.05-.06-.07-.08-.02-.03-.04-.05-.06-.08-.02-.02-.04-.05-.07-.08-.02-.02-.04-.05-.06-.08 0-.03-.03-.06-.05-.1-.03-.02-.05-.05-.07-.08-.02-.04-.04-.07-.06-.1-.02-.04-.05-.07-.07-.1-.02-.05-.04-.1-.06-.13-.03-.04-.05-.08-.08-.12-.02-.05-.04-.1-.06-.14-.02-.04-.04-.1-.06-.14-.03-.06-.05-.12-.07-.17-.02-.08-.04-.14-.06-.2-.03-.1-.05-.17-.07-.25-.02-.1-.04-.2-.06-.3-.03-.15-.05-.3-.06-.47-.02-.2-.03-.38-.03-.58 0-.2 0-.4.03-.58 0-.16.03-.32.06-.47.02-.1.04-.2.06-.3.02-.08.04-.16.07-.24.02-.06.04-.12.06-.2.02-.04.04-.1.07-.16.02-.05.04-.1.06-.15.02-.06.04-.1.06-.15.03-.04.05-.08.07-.12 0-.04.03-.08.05-.12.02-.03.05-.06.07-.1.02-.03.04-.06.06-.1.02-.03.04-.06.07-.1.02-.02.04-.05.06-.08.03-.03.05-.05.07-.08.03-.03.05-.05.07-.08.02-.03.04-.05.06-.08.02-.02.05-.04.07-.07.02 0 .04-.03.06-.05.02-.03.04-.05.07-.07.02-.02.04-.04.06-.06.02-.02.04-.04.06-.06.03-.02.05-.04.07-.06 0 0 .03-.03.05-.05.02-.02.05-.03.07-.05.02-.02.04-.03.06-.05.02-.02.04-.03.07-.05.02 0 .04-.03.06-.04.03-.02.05-.03.07-.05.03 0 .05 0 .07-.03.02 0 .04-.02.06-.04.02 0 .05-.02.07-.04.02-.02.04-.03.06-.04.02-.02.04-.03.07-.04.02 0 .04-.02.06-.03.02-.03.04-.04.06-.05.03 0 .05-.02.07-.03 0 0 .03-.02.05-.03.02-.02.05-.03.07-.04.02 0 .04-.02.06-.03.02 0 .04-.02.07-.02.02 0 .04 0 .06-.02.03 0 .05-.02.07-.02.03 0 .05-.02.07-.03.02 0 .04 0 .06-.02.02 0 .05 0 .07 0 .02-.02.04-.03.06-.03.02 0 .04-.02.07-.02.02 0 .04-.02.06-.02l.06-.02c.03 0 .05 0 .07 0 0-.02.03-.02.05-.03.02 0 .05 0 .07 0l.06-.03c.02 0 .04 0 .07 0 .02-.02.04-.02.06-.03.03 0 .05 0 .07 0 .03 0 .05 0 .07 0 .02-.02.04-.02.06-.02.02 0 .05 0 .07 0 .02-.02.04-.02.06-.03h.13l.06-.02h.07l.05-.02h.07c.02 0 .04 0 .06 0 .02 0 .04 0 .07 0H50l.07-.02h.13c.02 0 .05 0 .07 0 .02 0 .04 0 .06 0h.26s.03 0 .05 0H51.32l.04.02h.18l.07.02h.12l.07.02h.07l.07.02h.13l.06.02h.06l.06.02h.06l.07.02h.05l.07.02h.06l.06.03h.07l.07.02h.07l.06.02h.07l.06.02.06.02h.06l.06.03h.07l.05.02h.07l.06.03.06.02h.07l.07.03.07.02.06.02.07.02.06.02.06.02.06.02.06.02.07.02.05.02.07.02.06.02.06.02.07.02.07.03h.07l.06.03.07.03.06.02.06.03.06.03.06.03.07.02.05.03.07.03.06.03.06.03.07.02.07.02.07.03.06.03.06.03.07.03.06.03.06.02.06.03.07.03.05.03.06.04.08.03.06.03.07.04.07.03v-2.82l-.06-.02-.06-.02h-.06l-.07-.02h-.05l-.06-.03h-.08l-.06-.02-.07-.02h-.07l-.07-.02h-.06l-.06-.02-.07-.02h-.06l-.06-.02-.06-.02h-.06l-.07-.02-.06-.02H55l-.06-.02h-.07l-.07-.03h-.13l-.06-.02h-.07l-.06-.03h-.06l-.06-.02h-.06l-.07-.02h-.14l-.06-.02H54l-.07-.02-.06-.02h-.07l-.06-.02h-.07l-.06-.02h-.12l-.06-.02h-.07l-.06-.02h-.08l-.06-.02h-.07l-.07-.02h-.13l-.06-.02h-.07l-.06-.02h-.12l-.06-.02h-.13l-.08-.02h-.13l-.07-.02H52l-.06-.02h-.19l-.06-.02h-.27l-.06-.02h-.33l-.07-.02H50.4l-.07-.02H48.93l-.07.02h-.39l-.07.02h-.24l-.07.02h-.19l-.08.02h-.12l-.07.02h-.19l-.07.02h-.06l-.05.02h-.13l-.07.02H47l-.08.02h-.12l-.07.02h-.06l-.07.02h-.06l-.07.02h-.06l-.05.02h-.07l-.06.02-.07.02h-.06l-.08.02h-.06l-.06.03h-.07l-.06.02h-.07l-.06.02h-.06l-.07.03h-.05l-.07.03h-.06l-.07.03-.06.03h-.07l-.07.03-.06.02-.07.02-.06.02h-.07l-.06.03-.06.02-.07.02h-.05c-.02.02-.05.03-.07.03l-.06.03c-.02 0-.04 0-.07.02l-.06.02-.07.02c-.03 0-.05.02-.07.02-.02 0-.04.02-.06.03l-.07.02c-.02 0-.04 0-.06.02l-.07.02-.06.03-.06.02-.07.02-.05.03-.07.03-.06.03-.07.03-.06.03c-.03 0-.05.02-.07.04l-.07.03-.06.03-.07.03c-.02 0-.04 0-.06.02-.02.02-.04.03-.07.04l-.06.03-.06.03c-.03 0-.05.02-.07.04 0 0-.03.02-.05.03-.02.02-.05.03-.07.04-.02 0-.04.03-.06.04-.02 0-.04.03-.07.04-.02 0-.04.03-.06.04l-.07.04c-.03.02-.05.03-.07.05l-.06.04c-.02 0-.05.02-.07.03-.02.02-.04.04-.06.05-.02.02-.04.03-.07.05-.02 0-.04.03-.06.05-.02 0-.04.03-.06.05-.03 0-.05.03-.07.05z"/></g></g></g></svg>